<svg xmlns="http://www.w3.org/2000/svg">
  <defs>
    <symbol id="roof" viewBox="0 0 875 772">
      <g fill-rule="evenodd">
        <path d="M746.5,747c0,4.9-0.8,9.4-3.2,13.7c-5.2,9.3-13.7,10.8-23.3,10.8c-69.1-0.1-138.3-0.1-207.4,0.1c-4.7,0-5.7-1.4-5.7-5.9c0.4-57,0.5-114,0.7-170.9c0.1-20.5-10.7-32.2-31.3-32.5c-31-0.4-62-0.2-93,0c-10.4,0.1-18.7,4.2-22.8,14.5c-1.7,4.3-2.8,8.8-2.7,13.5c0.4,21.3,0.2,42.6,0.4,63.9c0.5,37.8-0.3,75.6-0.4,113.4c0,3.7-1.3,4.3-4.6,4.4c-4.2,0.1-8.5-1.3-12.5,0.9H132c-0.2-0.4-0.4-1.1-0.7-1.2c-9.1-3.3-12.3-10.2-12.3-19.3c0-111,0-221.9,0-332.9c0-2.7,0.7-4.5,2.9-6.3c19.2-15.9,38.2-31.9,57.3-47.9c19-15.8,38.1-31.5,57.1-47.4c27.9-23.3,55.7-46.8,83.6-70.1c18.9-15.8,37.9-31.3,56.8-47.1c20.9-17.5,41.8-35,62.6-52.6c2-1.7,3.3-1.9,5.4,0c14.1,12.7,28.2,25.2,42.4,37.7c27.6,24.5,55.3,48.9,82.9,73.4c13.8,12.2,27.7,24.3,41.5,36.6c14.7,13,29.2,26.1,43.9,39.1c13.9,12.3,27.9,24.5,41.9,36.9c14.9,13.2,29.7,26.6,44.7,39.7c3.1,2.7,4.7,5.4,4.7,9.7c-0.1,57.3-0.1,114.6-0.1,171.9C746.5,644.4,746.4,695.7,746.5,747z"/>
        <path fill="#E4373A" d="M857.7,372.9c-18.4-16.1-36.2-32.7-54.4-49.1c-15.4-13.9-31-27.6-46.4-41.5c-14.8-13.3-29.5-26.8-44.2-40.2c-21.7-19.6-43.3-39.2-65-58.8c-8.6-7.8-17.2-15.6-25.9-23.4c-17.3-15.5-34.7-31-51.9-46.6c-10-9-19.8-18.2-29.8-27.2C522.2,70,504.3,54,486.4,37.9c-8.8-7.9-17.8-15.5-26.3-23.7c-4.5-4.3-10.2-7.4-13.1-13.2h-3c-11.5,10.2-23,20.5-34.6,30.7C389.6,49,369.8,66.2,350,83.5c-15.4,13.5-30.6,27.1-46,40.6c-20.5,18-41.1,35.8-61.6,53.7c-14.6,12.8-29.1,25.7-43.7,38.5c-18.3,16.1-36.7,32.1-55.1,48.2c-14,12.3-27.9,24.6-41.9,36.8c-14.4,12.6-28.8,25-43.2,37.6c-19.5,17-39.1,34-58.6,51v1c12.5,18.5,30.3,26.1,52.6,19.8c11-3.1,20.8-8.8,29.6-16.1c20.5-16.9,40.8-34,61.2-51.1c15.8-13.2,31.5-26.5,47.3-39.7c14.8-12.5,29.7-25,44.5-37.4c13.3-11.2,26.5-22.5,39.8-33.7c18.4-15.5,36.9-30.9,55.3-46.4c15.3-12.8,30.4-25.8,45.7-38.5c14-11.7,28.5-22.8,42.1-34.9c8.2-7.2,17-13.7,24.8-21.3c1.6-1.5,2.6-1.3,4.1,0.1c16.4,14.8,32.9,29.6,49.3,44.3c9.8,8.8,19.5,17.5,29.4,26.2c14.3,12.7,28.6,25.3,42.9,38c10.3,9.2,20.5,18.5,30.8,27.6c17.3,15.3,34.6,30.6,51.8,45.9c14.1,12.6,28.2,25.3,42.3,37.9c23.8,21.3,47.8,42.3,71.3,63.8c15.8,14.4,32.6,26.6,53.4,32.8c20,5.9,37.4,2.3,52-13c1.5-1.5,2.6-3.5,4.7-4.3v-4C867.8,384,863.3,377.8,857.7,372.9z M692.1,198c3,1.7,5.3,4.5,8,6.7c22.3,18.9,44.6,37.9,66.9,56.8c1.1,1,2.5,2.5,3.8,2.1c2-0.7,1-2.9,1-4.4c0.1-27.5,0-55,0-82.5c0-27.5-0.1-55,0.1-82.5c0-4.1-1.1-5.4-5.3-5.3c-24,0.2-48,0.1-72,0.1c-9.6,0-9.6,0-9.6,10c0,28,0.2,56-0.1,84C684.8,189.5,686.2,194.5,692.1,198z"/>
      </g>
    </symbol>
    <symbol id="drain" viewBox="0 0 450 434">
      <g fill-rule="evenodd">
        <path d="M59.4106 141.249C55.2936 141.249 51.6724 143.966 50.9949 147.562C50.4572 150.416 50.1335 195.674 50.5912 204.01C51.0261 211.933 51.1739 212.321 54.6651 214.709C56.5957 216.031 57.2847 216.3 58.7231 216.297C61.0876 216.292 63.7293 214.988 66.3942 212.508L68.5911 210.463V179.646C68.5911 149.092 68.5837 148.814 67.8118 147.146C66.0422 143.321 63.0894 141.249 59.4106 141.249ZM159.928 141.249C157.71 141.249 156.058 141.973 153.44 144.092C151.617 145.567 151.263 146.052 151.084 147.327C150.968 148.153 150.844 161.223 150.808 176.372C150.742 204.563 150.892 208.341 152.2 211.469C153.01 213.408 153.753 214.076 156.594 215.42C158.018 216.093 159.42 216.65 159.71 216.658C160.691 216.682 166.201 213.781 167.235 212.696C168.154 211.731 168.301 211.213 168.631 207.767C168.834 205.648 169.102 191.022 169.225 175.263L169.449 146.61L167.005 144.64C163.895 142.132 162.053 141.249 159.928 141.249ZM110.072 169.701C108.82 169.675 107.548 169.999 106.211 170.666C104.008 171.763 102.277 173.59 101.169 175.983C100.397 177.651 100.391 177.929 100.391 208.485V239.305L101.685 240.405C104.298 242.629 105.411 243.387 106.768 243.871C108.644 244.541 111.396 244.522 113.066 243.828C113.823 243.514 115.398 242.313 116.568 241.159L118.694 239.062V174.977L116.362 172.797C114.186 170.762 112.158 169.744 110.072 169.701ZM109.82 278.293C105.145 278.3 101.913 281.375 89.8784 297.269C67.0585 327.407 53.2492 352.718 50.6454 369.178C50.0526 372.925 50.1495 381.177 50.8324 385.076C53.0323 397.634 58.7782 408.372 67.9866 417.134C77.7194 426.394 89.764 432.265 101.5 433.469C104.768 433.804 119.333 433.332 122.191 432.799C127.802 431.752 136.847 427.832 143.283 423.659C156.238 415.26 165.424 401.243 168.446 385.261C169.426 380.076 169.359 371.13 168.302 366.166C165.782 354.33 157.8 338.445 143.804 317.418C134.782 303.862 122.387 287.374 117.4 282.294C114.36 279.197 112.64 278.289 109.82 278.293ZM109.315 303.925C109.903 303.923 115.603 310.49 119.166 315.273C129.875 329.65 144.938 355.809 148.408 366.055C152.264 377.439 149.318 390.343 140.498 400.699C134.256 408.028 125.853 412.684 115.983 414.285C111.707 414.978 104.153 414.949 100.76 414.226C87.2789 411.351 75.1111 399.672 70.7649 385.434C69.8497 382.436 69.7504 381.552 69.7264 376.203C69.7057 371.602 69.8467 369.753 70.3604 367.884C72.7876 359.055 80.3477 345.127 92.635 326.846C103.029 311.382 108.453 303.928 109.315 303.925Z"/>
        <path fill="#E4373A" d="M411.532 427.248C411.234 426.966 378.211 406.214 338.147 381.133C298.083 356.052 264.93 335.161 264.472 334.708L263.64 333.886V150.333L244.043 130.65V84.295H0V0H450V84.295H396.754V130.65L377.157 150.333V276.525L378.174 277.263C378.733 277.669 390.173 284.834 403.595 293.184C417.017 301.535 428.29 308.713 428.646 309.135C429.257 309.86 429.293 313.248 429.293 368.832V427.76H420.683C413.85 427.76 411.961 427.655 411.532 427.248ZM399.712 354.598V324.323L388.527 317.371C382.375 313.548 370.936 306.446 363.106 301.588C355.276 296.731 348.579 292.419 348.223 292.005C347.611 291.295 347.576 287.096 347.576 215.125V138.996L349.026 137.433C349.824 136.574 354.233 132.132 358.825 127.563L367.173 119.255V84.295H273.624V119.215L293.225 138.864L293.219 228.651C293.215 278.035 293.256 318.482 293.309 318.534C293.695 318.912 399.215 384.873 399.433 384.873C399.587 384.873 399.712 371.25 399.712 354.598ZM420.419 29.5772H29.5809V54.7178H420.419V29.5772Z"/>
      </g>
    </symbol>
    <symbol id="facade" viewBox="0 0 510 448">
      <g fill-rule="evenodd">
        <path d="M127 0V48.3027V96.6055L63.4922 137.887C22.3655 164.621 0.22773 179.579 0.6719 180.334C2.54311 183.514 55.5731 258.802 57.2813 260.703L59.2598 262.904L62.3789 260.604C64.0953 259.338 74.5 253.194 85.5 246.951C97.1715 240.327 136.107 215.39 179 187.066C226.513 155.692 253.384 138.529 255 138.525C256.63 138.521 282.735 155.198 330 186.438C392.178 227.534 447.768 263 450.004 263C451.364 263 455.529 257.35 482.391 219.08C497.609 197.399 509.708 179.32 509.279 178.904C507.603 177.28 255.864 14 255.037 14C254.553 14 240.317 22.9785 223.402 33.9512C206.488 44.9238 192.277 53.6707 191.824 53.3906C191.371 53.1105 191 40.9839 191 26.4414V0H159H127ZM254.15 51.4961C255.576 50.9491 463.663 185.75 465.395 188.342C466.023 189.282 463.391 193.816 456.545 203.59C451.186 211.24 446.023 218.31 445.072 219.301C443.417 221.025 439.357 218.465 349.922 159.338C298.54 125.368 255.825 97.5797 255 97.5859C254.175 97.5921 211.505 125.363 160.178 159.299C108.851 193.234 66.7011 221 66.5117 221C65.9333 221 60.7805 214.088 52.041 201.59C46.2511 193.31 43.9841 189.28 44.6055 188.367C45.0971 187.645 64.4 174.75 87.5 159.713C110.6 144.676 157.227 114.298 191.115 92.207C225.004 70.1157 253.369 51.7959 254.15 51.4961V51.4961ZM296.434 192.227C296.629 192.403 297.241 192.967 297.594 193.287C297.675 193.337 297.625 193.306 297.715 193.361C296.079 191.907 295.87 191.717 296.434 192.227V192.227ZM301.857 197.225C301.926 197.289 301.987 197.348 302.055 197.412C302.185 197.483 302.314 197.556 302.445 197.623C302.45 197.524 302.2 197.382 301.857 197.225ZM306.029 199.428C306.015 199.425 306.019 199.437 306.047 199.469C306.281 199.742 306.319 199.774 306.525 200.014C306.622 200.047 306.72 200.079 306.816 200.113C307.092 200.211 306.129 199.449 306.029 199.428V199.428Z"/>
        <path fill="#E4373A" d="M255 164.594C253.676 164.588 68.3861 285.484 65.2676 288.389C64.3159 289.275 63.9745 307.568 63.7676 368.768L63.5 448H255H446.5L446.232 371.268C446.025 312.088 445.682 294.265 444.732 293.357C441.54 290.306 256.313 164.6 255 164.594ZM234.994 250.377H275.264V430.916H234.994V250.377ZM310.994 250.377H351.264V430.916H310.994V250.377ZM158.736 251.34H199.006V431.879H158.736V251.34Z"/>
      </g>
    </symbol>
    <symbol id="roof-components" viewBox="0 0 875 772">
      <g fill-rule="evenodd">
        <path d="M857.7,371.9c-18.3-16.1-36.2-32.7-54.4-49.1c-15.4-13.9-31-27.6-46.4-41.5c-14.8-13.3-29.5-26.8-44.2-40.2c-21.7-19.6-43.3-39.2-65-58.8c-8.5-7.7-16.9-15.4-25.5-23.1c-17.7-15.9-35.4-31.7-53.1-47.6c-9.8-8.8-19.3-17.7-29.1-26.5C522.2,69,504.3,53,486.4,36.9c-8.8-7.9-17.8-15.5-26.3-23.7c-4.5-4.3-10.2-7.4-13.1-13.2h-3c-20.3,17.9-40.7,35.7-61,53.6c-24.7,21.7-49.4,43.4-74.2,65.1c-21,18.4-42,36.7-63,55.1c-15.6,13.7-30.8,27.8-46.7,41.2c-21.2,17.9-41.6,36.7-62.6,54.8c-11.7,10.1-23.2,20.4-34.8,30.6c-14.3,12.4-28.6,24.8-42.9,37.2C39.3,354.7,19.6,371.8,0,389v1c10.6,15.4,24.5,23.6,43.9,21.5c12-1.3,22.1-6.8,31.8-13.1c13.7-9,25.5-20.6,38.2-31c18.1-14.8,35.7-30.3,53.6-45.3c17.8-14.9,35.7-29.7,53.4-44.6c18-15.2,35.9-30.5,53.9-45.7c18-15.2,36.2-30.2,54.2-45.4c18-15.2,35.9-30.5,54-45.7c19.7-16.6,39.6-33.1,59.3-49.7c2.2-1.9,3.3-1.6,5.3,0.3c6.3,5.9,12.8,11.5,19.2,17.3c20.8,18.5,41.7,37,62.5,55.6c23.3,20.8,46.4,41.7,69.7,62.5c17.2,15.4,34.6,30.6,51.8,45.9c14.3,12.7,28.4,25.5,42.7,38.3c23.8,21.3,47.8,42.2,71.3,63.8c15.7,14.4,32.6,26.6,53.4,32.7c20,5.9,37.4,2.3,52-13c1.5-1.5,2.6-3.5,4.7-4.3v-4C867.8,383,863.3,376.8,857.7,371.9z M746.1,421.8c0-5.2-1.2-8.7-5.6-12.2c-11.3-9.3-21.8-19.5-32.8-29.2c-18.2-16.1-36.5-32-54.6-48.1c-13.5-11.9-26.8-23.9-40.2-35.9c-16.6-14.8-33.3-29.5-50-44.3c-11.8-10.5-23.7-20.9-35.5-31.4c-19.9-17.6-39.9-35.2-59.8-52.9c-7.3-6.5-14.7-13-21.8-19.7c-2.7-2.6-4.6-2.8-7.6-0.3c-19.2,16.2-38.5,32.2-57.8,48.3c-15.1,12.6-30.1,25.2-45.1,37.8c-15.2,12.7-30.4,25.3-45.5,38C272,287,254.2,302,236.4,316.9c-14.8,12.4-29.6,24.7-44.4,37c-17.5,14.6-34.9,29.2-52.4,43.8c-5,4.2-9.9,8.4-15,12.3c-3.8,2.9-5.7,6-5.7,11.2c0.2,109,0.2,217.9,0.1,326.9c0,10,1.7,18.6,12.6,22.4c0.3,0.1,0.3,0.9,0.5,1.3h209c1.6-1.8,3.8-0.9,5.6-1c11.4-0.1,11.4-0.1,11.4-11.6c0-57,0-114,0-171c0-3,0.4-6,1.3-8.8c3.8-12.4,11.5-18.4,24.6-18.5c30.8-0.1,61.7-0.2,92.5,0c15.4,0.1,26.1,7.5,29.8,20.2c1,3.5,1.7,7.2,1.7,10.8c0.1,26.3,0.6,52.7-0.2,79c-0.9,31.3-0.1,62.6-0.7,93.9c-0.1,3.8,0.9,5.1,5,5.1c70.7-0.1,141.3-0.3,212,0c12.2,0,20.7-8.2,22.2-18.6c0.4-2.9,0-5.9,0-8.9C746,635.8,746,528.8,746.1,421.8z"/>
        <path fill="#E4373A" d="M770.8,263.4c-5.6-4.6-11.2-9.2-16.7-13.8c-18.5-15.7-37-31.4-55.5-47c-3.8-3.2-7.8-6.2-11.4-9.7c-3.1-3-1.8-7.4-1.8-11c-0.2-26.5-0.1-53-0.1-79.4c0-3.7,0.2-7.3,0.1-11c0-2.8,1.2-3.6,3.9-3.6c26.1,0.1,52.3,0.1,78.4,0c4,0,4.1,1.9,4.1,4.9c-0.1,55.5,0,110.9-0.1,166.4C771.8,260.3,772.2,261.7,770.8,263.4z"/>
      </g>
    </symbol>
    <symbol id="fence" viewBox="0 0 332 306">
      <g fill-rule="evenodd">
        <path d="M312,23.7c-4.5-6.1-9.6-11.8-14.5-17.6c-2.3-2.7-4.9-5.2-8.6-6.1h-3c-7.9,2-11.3,9.1-15.9,14.6c-8.1,9.6-15.7,19.5-23.5,29.3c-2.4,3-3.6,6.3-3.6,10c0,79.1,0,158.2,0,237.3c0,7.7,3.7,12.6,11,14.8h67c5.8-2.1,9.4-6.1,11-12V51C327.4,40.4,318.8,32.7,312,23.7z M307.1,276.5c0,4.3-1,5.8-5.5,5.6c-9.8-0.4-19.7-0.3-29.5,0c-4,0.1-5.1-1.4-5.1-5.3c0.1-72.3,0.1-144.6,0-217c0-5.4,4.2-8,6.7-11.7c3.5-5,8-9.3,11.7-14.1c1.4-1.9,2.3-2.1,3.7-0.4c5.7,7,11.4,14.1,17.1,21.2c1.4,1.8,0.8,3.8,0.8,5.8L307.1,276.5z M202.2,37.7c-9-10.5-17.6-21.4-26.3-32.2c-2.2-2.7-5.2-3.9-8-5.5h-4c-7.5,2.8-11.1,9.5-15.7,15.2c-8.1,10-16.1,20.1-24.2,30.1c-1.7,2.1-2.3,4.3-2.2,6.9c0.1,4.5,0,9,0,13.5l0.1,228.8c-0.2,6.4,4.8,9.2,9.9,11.5h68c7.1-2.5,9.2-7.4,9.2-14.9c-0.3-77.9-0.3-155.8,0-233.7C209.2,49.6,207.2,43.5,202.2,37.7zM181.2,282c-10-0.2-20-0.3-30,0c-4.2,0.1-5.3-1.2-5.3-5.3l0-214.8c0-4.7,1.5-8.2,4.3-11.6c4.2-5.1,8.3-10.2,12.4-15.4c2.4-3,4-3.5,6.6,0.3c4.4,6.3,9.6,12.2,14.6,18.1c1.6,1.8,2.2,3.5,2.2,5.8c0,72.8-0.1,145.6,0.1,218.3C186.1,281.3,184.7,282.1,181.2,282z"/>
        <path fill="#E4373A" d="M78,306c-22.3,0-44.7,0-67,0c-5.5-1.8-9.2-5.5-11-11c0-81.3,0-162.6,0-244c1.7-2.1,1.6-4.9,3.5-7.1c7.9-9.5,15.1-19.6,23.3-28.8C31.6,9.5,34.9,2,43,0c1,0,2,0,3,0c2.7,1.8,5.9,2.2,8.2,5.2c10,12.9,20.4,25.6,30.8,38.2c1.4,1.7,2,3.1,2,5.3c0,82.5,0,165.1,0,247.6c0,3.8-1.8,5.9-4.8,7.7C80.8,304.8,79,304.4,78,306z M65.1,61c0-3-0.7-5.5-2.4-7.7c-5.5-6.8-11.1-13.3-16.6-20.1c-1.4-1.7-1.8-1.7-3.2,0C37.5,40,31.7,46.5,26.4,53.3c-1.3,1.7-2.5,3.5-2.5,6.2c0.1,72.6,0.1,145.2,0,217.9c0,3.4,1,4.7,4.6,4.7c10.3-0.2,20.7-0.3,31,0c4.5,0.1,5.6-1.4,5.6-5.7"/>
      </g>
    </symbol>
    <symbol id="insulation" viewBox="0 0 511 448">
      <g fill-rule="evenodd">
        <path d="M127 0V96.6L0 179.2L1.8 182C2.8 183.5 16 202.4 31.1 223.9C46.2 245.4 59 263 59.7 263C60.4 263 61.1 262.6 61.5 262.1C61.9 261.6 70.3 256.5 80.3 250.7C90.3 244.9 133.2 217.4 175.5 189.4C225.2 156.5 253.4 138.5 255 138.5C256.6 138.5 285.2 156.8 337.5 191.4C417 243.9 446.9 263 449.9 263C451.1 263 498.6 197.1 508.3 182L510.1 179.2L383 96.6C313.1 51.2 255.5 14 255 14C254.5 14 240.3 23 223.4 34C206.5 45 192.3 53.7 191.8 53.4C191.3 53.1 191 41 191 26.5V0H127ZM254.2 51.5C255.6 51 463.7 185.8 465.4 188.3C466 189.2 463.4 193.8 456.6 203.5C451.2 211.2 446.1 218.2 445.1 219.2C443.4 220.9 439.4 218.4 349.9 159.2C298.5 125.2 255.8 97.4 255 97.4C254.2 97.4 211.5 125.2 160.2 159.1C108.9 193 66.7 221 66.5 221C65.9 221 60.8 214.1 52 201.6C46.2 193.3 43.9 189.3 44.6 188.4C45.1 187.7 64.4 174.8 87.5 159.7C110.6 144.7 157.2 114.3 191.1 92.2C225 70.1 253.4 51.8 254.2 51.5ZM269.2 183C269.3 183.1 269.3 183.1 269.4 183.2C269.3 183.1 269.3 183 269.2 183ZM272.2 187.5C272.2 187.6 272.2 187.6 272.2 187.5C272.4 187.7 272.6 187.8 272.7 187.9C272.4 187.7 272.2 187.6 272.2 187.5ZM246.9 198.5C245.6 199.1 245.2 199.3 244.7 199.5C245.2 199.3 247.5 198.2 246.9 198.5ZM292.2 217.4C292.2 217.6 292.2 217.7 292.2 217.9V218C292.3 217.8 292.2 217.2 292.2 217.4ZM268.2 233.7C268.2 233.8 268.4 234.1 268.6 234.4C268.5 234.1 268.4 233.9 268.2 233.7Z"/>
        <path fill="#E4373A" d="M444.8 293.7C441.6 290.3 256.9 164.6 255 164.6C253.1 164.6 67.2 286.4 64.8 289.2C63.2 291.1 63 296.4 63 369.6V448H447V296.2L444.8 293.7ZM197.4 303C197.3 313 196.9 315.7 194.2 324C192.5 329.2 188.8 337.5 186.1 342.5C183.4 347.5 179.2 355.3 176.8 360C172.7 368.2 172.6 368.8 172.6 378C172.6 388.7 174.2 393.4 180.5 401.6C184.4 406.7 185.6 411.2 184.6 416.5C183.9 420.5 179.1 426.4 174.9 428.5C171 430.5 164.2 430.2 159.8 427.9C156.1 425.9 149.1 417.1 145.2 409.4C144.1 407.2 142.2 402.1 141 398.1C139 391.6 138.8 389.2 139.3 376.1C139.7 363.7 140.2 360.3 142.3 354.4C145.3 346.1 149.8 337 154.7 329.2C161.2 319.1 163.4 312.4 163.5 302.9C163.6 292.5 161.6 286.2 156.1 279.5C153.9 276.9 151.7 273 151.1 271C149.3 264.4 153.2 255.4 159.1 252.4C163.3 250.2 172.8 250.5 176.7 252.9C183.4 257 193 273.3 196.2 286C196.9 289.3 197.5 296.2 197.4 303ZM262.4 392.3C262.5 392.5 262.6 392.7 262.6 392.9C262.8 393.4 263 393.8 263.2 394.3C263.3 394.6 263.5 394.9 263.6 395.2C263.8 395.6 264 396 264.2 396.4C264.4 396.7 264.5 397 264.7 397.3C265.5 398.6 266.4 399.9 267.3 401.2C274.5 410.6 273.8 420.3 265.3 426.7C260.5 430.3 251.9 431.1 247.3 428.2C239.9 423.6 230.6 408.3 227.4 395.6C225.4 387.7 225.5 370.9 227.5 361.8C229.7 352 234.4 341.2 240.8 331.3C242.1 329.2 243.3 327.2 244.4 325.3C245 324.1 245.6 323 246.1 321.9C246.2 321.6 246.4 321.3 246.5 321C246.5 321 246.5 320.9 246.6 320.9C248.9 315.8 250.2 311.1 250.6 306.3C250.7 305.2 250.7 304 250.7 302.8C250.7 301 250.6 299.4 250.5 297.8C250.5 297.7 250.5 297.6 250.5 297.6C250.4 297 250.3 296.3 250.2 295.7C250.1 295.4 250.1 295 250 294.7C250 294.5 249.9 294.4 249.9 294.2C248.7 288.5 246.2 283.6 241.2 276.6C238 272.1 237.7 271.1 238.1 266.3C238.6 260.4 240.7 256.8 245.9 253.3C248.5 251.5 250.6 251.1 255.8 251.1C262.4 251.8 263.3 252.1 268.1 257C274.8 263.9 281.3 276.4 283.5 286.8C287.7 306.5 283.2 327.5 270.5 348.1C268.8 350.8 266.9 354.3 265.3 357.4C265.3 357.5 265.2 357.5 265.2 357.6C265.1 357.7 265.1 357.8 265 357.9C264.4 359.2 263.8 360.4 263.3 361.5C262.9 362.4 262.6 363.2 262.3 363.9C258.7 373.3 258.8 383.4 262.4 392.3ZM371.8 304.3C371.4 316.1 370.9 319.7 368.8 325.5C366 333.4 360.9 343.4 355 353C349.2 362.2 346.7 371.3 347.3 380.4C347.8 388.2 351.1 396.8 355.5 402.1C359.2 406.6 360.6 412.1 359.2 416.9C357.8 421.6 353.9 426.4 350 428.5C346.1 430.5 339.3 430.3 335 428C327.5 424.1 317.5 407 314.6 393.5C310.4 373.9 314.9 353.4 328.1 331.6C336.3 318.1 338.4 312.3 338.4 303C338.5 293.7 336.3 286.8 331 279.7C326.1 273.2 324.7 268.3 326.1 263.1C328.3 254.9 333.7 251 342.8 251C350.3 251 353.6 253 359.4 261.2C365.2 269.3 367.4 273.9 370.1 282.8C372 289.3 372.2 291.7 371.8 304.3Z"/>
      </g>
    </symbol>
  </defs>
</svg>
